<svg xmlns="http://www.w3.org/2000/svg" version="1.2" viewBox="353.9 438.2 1211.2 203.3">
	<title>New Project</title>
	<style>
		.s0 { fill: #42b883;stroke: #35495e;stroke-width: 5 } 
	</style>
	<path id="FiTrackr" class="s0" aria-label="FiTrackr" d="m509.3 529.7v33.8h-105.9v-33.8zm14.9-75.6v33.6h-134.3v151.3h-33.5v-168q0-3.4 1.3-6.5 1.3-3.1 3.5-5.5 2.3-2.3 5.4-3.6 3.1-1.3 6.7-1.3zm57.4-13.4v30.3h-33.6v-30.3zm0 59v139.3h-33.5v-139.3zm202.9-45.6v33.6h-73.8v151.3h-33.6v-151.3h-74l0.1-33.6zm127.3 45.6v33.5h-75.4q-6.8 0-10.3 3.4-3.5 3.4-3.5 10v92.4h-33.5v-92.4q0-8.7 2.2-15.5 2.2-6.8 5.8-12 3.7-5.3 8.5-8.9 4.8-3.7 9.9-6 5.3-2.4 10.6-3.4 5.4-1.1 10-1.1zm155.1 46.1v47.1q0 6.9-2.4 15-2.5 8-8 15-5.4 6.8-14.3 11.5-8.8 4.6-21.4 4.6h-60.5q-7 0-15.1-2.4-8-2.5-14.9-7.9-6.9-5.6-11.5-14.3-4.6-8.9-4.6-21.5 0-7 2.4-15.1 2.5-8.2 7.9-15 5.5-6.9 14.3-11.6 8.9-4.6 21.5-4.6h60.5v31.9h-60.5q-6.8 0-10.6 4.3-3.7 4.1-3.7 10.3 0 6.6 4.3 10.3 4.3 3.6 10.3 3.6h60.2q6.8 0 10.5-4.1 3.8-4.1 3.8-10.3v-46.8q0-6.6-4.1-10.4-4-3.9-10.2-3.9h-73.6v-31.8h73.6q6.9 0 14.9 2.4 8.1 2.5 15 8 6.9 5.4 11.6 14.3 4.6 8.8 4.6 21.4zm163.6 59.7v33.5h-90.9q-6.9 0-15.2-2.4-8.2-2.5-15.3-8-7-5.7-11.8-14.6-4.6-9-4.6-22.1v-45.3q0-4.8 1-10.1 1.2-5.3 3.5-10.4 2.3-5.3 5.9-10.1 3.8-4.7 8.9-8.4 5.3-3.6 12.2-5.8 6.8-2.1 15.4-2.1h90.9v33.5h-90.9q-6.6 0-10 3.3-3.4 3.4-3.4 10.3v45.1q0 6.6 3.5 10.1 3.5 3.5 10.2 3.5zm112.5-42.6l78.9 76.1h-48.3l-67.6-65.2q-5.7-5.2-5.3-12.9 0.3-3.6 1.8-6.7 1.7-3.2 4.5-5.4l61.3-49.4h53.6zm-50.8-122.2v198.2h-33.5v-198.2zm270.4 58.9v33.5h-75.4q-6.8 0-10.3 3.5-3.5 3.3-3.5 9.9v92.4h-33.5v-92.4q0-8.6 2.2-15.4 2.2-6.9 5.8-12 3.8-5.3 8.5-8.9 4.8-3.8 10-6.1 5.2-2.3 10.5-3.3 5.4-1.2 10.1-1.2z"/>
</svg>